HIERARCHY
ROOT Root
{
  OFFSET 0.0 0.0 0.0
  CHANNELS 6 Xposition Yposition Zposition Zrotation Yrotation Xrotation
  JOINT Hips
  {
    OFFSET 0.0 100.0 0.0
    CHANNELS 6 Xposition Yposition Zposition Zrotation Yrotation Xrotation
    JOINT Spine1
    {
      OFFSET -0.013727 5.003763 -0.053727
      CHANNELS 3 Zrotation Yrotation Xrotation
      JOINT Spine2
      {
        OFFSET -0.0 7.125301 -0.029825
        CHANNELS 3 Zrotation Yrotation Xrotation
        JOINT Chest
        {
          OFFSET -1e-06 7.550063 -0.815971
          CHANNELS 3 Zrotation Yrotation Xrotation
          JOINT Neck1
          {
            OFFSET -0.181677 26.311295 -0.553348
            CHANNELS 3 Zrotation Yrotation Xrotation
            JOINT Neck2
            {
              OFFSET -3e-06 7.709397 2.302585
              CHANNELS 3 Zrotation Yrotation Xrotation
              JOINT Head
              {
                OFFSET -5e-06 6.128916 1.953709
                CHANNELS 3 Zrotation Yrotation Xrotation
                JOINT HeadEnd
                {
                  OFFSET 0.003598 16.065403 -1.835379
                  CHANNELS 3 Zrotation Yrotation Xrotation
                }
                JOINT Jaw
                {
                  OFFSET 0.002637 0.475592 3.094941
                  CHANNELS 3 Zrotation Yrotation Xrotation
                }
                JOINT LeftEye
                {
                  OFFSET 3.206381 5.380205 7.586883
                  CHANNELS 3 Zrotation Yrotation Xrotation
                }
                JOINT RightEye
                {
                  OFFSET -3.22244 5.361869 7.558234
                  CHANNELS 3 Zrotation Yrotation Xrotation
                }
              }
            }
          }
          JOINT LeftShoulder
          {
            OFFSET 1.621652 23.237164 5.113413
            CHANNELS 3 Zrotation Yrotation Xrotation
            JOINT LeftArm
            {
              OFFSET 14.919846 2e-06 -5.502326
              CHANNELS 3 Zrotation Yrotation Xrotation
              JOINT LeftForeArm
              {
                OFFSET 28.739307 0.0 -0.002588
                CHANNELS 3 Zrotation Yrotation Xrotation
                JOINT LeftHand
                {
                  OFFSET 27.093981 -1e-06 0.002609
                  CHANNELS 3 Zrotation Yrotation Xrotation
                  JOINT LeftHandThumb1
                  {
                    OFFSET 2.276482 -1.392045 3.191413
                    CHANNELS 3 Zrotation Yrotation Xrotation
                    JOINT LeftHandThumb2
                    {
                      OFFSET 4.012836 -1.828127 1.641654
                      CHANNELS 3 Zrotation Yrotation Xrotation
                      JOINT LeftHandThumb3
                      {
                        OFFSET 2.798515 0.0 -3e-06
                        CHANNELS 3 Zrotation Yrotation Xrotation
                        JOINT LeftHandThumbEnd
                        {
                          OFFSET 3.180793 -4e-06 4e-06
                          CHANNELS 3 Zrotation Yrotation Xrotation
                        }
                      }
                    }
                  }
                  JOINT LeftHandIndex1
                  {
                    OFFSET 3.247555 -0.531998 2.296169
                    CHANNELS 3 Zrotation Yrotation Xrotation
                    JOINT LeftHandIndex2
                    {
                      OFFSET 6.364578 0.01206 0.1786
                      CHANNELS 3 Zrotation Yrotation Xrotation
                      JOINT LeftHandIndex3
                      {
                        OFFSET 3.662364 0.0 0.0
                        CHANNELS 3 Zrotation Yrotation Xrotation
                        JOINT LeftHandIndex4
                        {
                          OFFSET 2.329242 4e-06 4e-06
                          CHANNELS 3 Zrotation Yrotation Xrotation
                          JOINT LeftHandIndexEnd
                          {
                            OFFSET 2.759615 -0.180537 -0.113024
                            CHANNELS 3 Zrotation Yrotation Xrotation
                          }
                        }
                      }
                    }
                  }
                  JOINT LeftHandMiddle1
                  {
                    OFFSET 3.163495 0.240981 1.000332
                    CHANNELS 3 Zrotation Yrotation Xrotation
                    JOINT LeftHandMiddle2
                    {
                      OFFSET 6.19078 -0.259278 -1.002548
                      CHANNELS 3 Zrotation Yrotation Xrotation
                      JOINT LeftHandMiddle3
                      {
                        OFFSET 4.35652 -4e-06 -1e-06
                        CHANNELS 3 Zrotation Yrotation Xrotation
                        JOINT LeftHandMiddle4
                        {
                          OFFSET 2.996877 -8e-06 0.0
                          CHANNELS 3 Zrotation Yrotation Xrotation
                          JOINT LeftHandMiddleEnd
                          {
                            OFFSET 2.304287 -0.294569 -0.031741
                            CHANNELS 3 Zrotation Yrotation Xrotation
                          }
                        }
                      }
                    }
                  }
                  JOINT LeftHandRing1
                  {
                    OFFSET 2.882643 -0.053652 -0.322543
                    CHANNELS 3 Zrotation Yrotation Xrotation
                    JOINT LeftHandRing2
                    {
                      OFFSET 5.854541 -0.486202 -1.373841
                      CHANNELS 3 Zrotation Yrotation Xrotation
                      JOINT LeftHandRing3
                      {
                        OFFSET 4.350578 0.0 3e-06
                        CHANNELS 3 Zrotation Yrotation Xrotation
                        JOINT LeftHandRing4
                        {
                          OFFSET 2.651321 7e-06 2e-06
                          CHANNELS 3 Zrotation Yrotation Xrotation
                          JOINT LeftHandRingEnd
                          {
                            OFFSET 1.936105 0.077687 -7.1e-05
                            CHANNELS 3 Zrotation Yrotation Xrotation
                          }
                        }
                      }
                    }
                  }
                  JOINT LeftHandPinky1
                  {
                    OFFSET 2.8655 -0.310005 -1.600378
                    CHANNELS 3 Zrotation Yrotation Xrotation
                    JOINT LeftHandPinky2
                    {
                      OFFSET 5.087849 -1.331141 -1.77123
                      CHANNELS 3 Zrotation Yrotation Xrotation
                      JOINT LeftHandPinky3
                      {
                        OFFSET 3.070974 4e-06 0.0
                        CHANNELS 3 Zrotation Yrotation Xrotation
                        JOINT LeftHandPinky4
                        {
                          OFFSET 1.549672 0.0 1e-06
                          CHANNELS 3 Zrotation Yrotation Xrotation
                          JOINT LeftHandPinkyEnd
                          {
                            OFFSET 1.944893 -0.157802 0.057219
                            CHANNELS 3 Zrotation Yrotation Xrotation
                          }
                        }
                      }
                    }
                  }
                }
              }
            }
          }
          JOINT RightShoulder
          {
            OFFSET -1.380118 23.180309 5.214158
            CHANNELS 3 Zrotation Yrotation Xrotation
            JOINT RightArm
            {
              OFFSET -15.037196 1.2e-05 -5.545604
              CHANNELS 3 Zrotation Yrotation Xrotation
              JOINT RightForeArm
              {
                OFFSET -28.736639 2e-06 -0.002597
                CHANNELS 3 Zrotation Yrotation Xrotation
                JOINT RightHand
                {
                  OFFSET -27.133619 -0.0 0.002613
                  CHANNELS 3 Zrotation Yrotation Xrotation
                  JOINT RightHandThumb1
                  {
                    OFFSET -2.274032 -1.383988 3.163127
                    CHANNELS 3 Zrotation Yrotation Xrotation
                    JOINT RightHandThumb2
                    {
                      OFFSET -4.011429 -1.827466 1.640914
                      CHANNELS 3 Zrotation Yrotation Xrotation
                      JOINT RightHandThumb3
                      {
                        OFFSET -2.794935 -4e-06 -3e-06
                        CHANNELS 3 Zrotation Yrotation Xrotation
                        JOINT RightHandThumbEnd
                        {
                          OFFSET -3.183852 4e-06 1e-06
                          CHANNELS 3 Zrotation Yrotation Xrotation
                        }
                      }
                    }
                  }
                  JOINT RightHandIndex1
                  {
                    OFFSET -3.253266 -0.520057 2.282866
                    CHANNELS 3 Zrotation Yrotation Xrotation
                    JOINT RightHandIndex2
                    {
                      OFFSET -6.341917 0.012471 0.178266
                      CHANNELS 3 Zrotation Yrotation Xrotation
                      JOINT RightHandIndex3
                      {
                        OFFSET -3.654871 -8e-06 -0.0
                        CHANNELS 3 Zrotation Yrotation Xrotation
                        JOINT RightHandIndex4
                        {
                          OFFSET -2.327586 0.0 1e-06
                          CHANNELS 3 Zrotation Yrotation Xrotation
                          JOINT RightHandIndexEnd
                          {
                            OFFSET -2.76179 -0.180656 -0.113078
                            CHANNELS 3 Zrotation Yrotation Xrotation
                          }
                        }
                      }
                    }
                  }
                  JOINT RightHandMiddle1
                  {
                    OFFSET -3.168106 0.246593 1.00103
                    CHANNELS 3 Zrotation Yrotation Xrotation
                    JOINT RightHandMiddle2
                    {
                      OFFSET -6.180828 -0.258836 -1.000895
                      CHANNELS 3 Zrotation Yrotation Xrotation
                      JOINT RightHandMiddle3
                      {
                        OFFSET -4.348901 0.0 -0.0
                        CHANNELS 3 Zrotation Yrotation Xrotation
                        JOINT RightHandMiddle4
                        {
                          OFFSET -3.00024 -4e-06 -2e-06
                          CHANNELS 3 Zrotation Yrotation Xrotation
                          JOINT RightHandMiddleEnd
                          {
                            OFFSET -2.30252 -0.29437 -0.031706
                            CHANNELS 3 Zrotation Yrotation Xrotation
                          }
                        }
                      }
                    }
                  }
                  JOINT RightHandRing1
                  {
                    OFFSET -2.88569 -0.067952 -0.308858
                    CHANNELS 3 Zrotation Yrotation Xrotation
                    JOINT RightHandRing2
                    {
                      OFFSET -5.854198 -0.48613 -1.373731
                      CHANNELS 3 Zrotation Yrotation Xrotation
                      JOINT RightHandRing3
                      {
                        OFFSET -4.33881 -4e-06 -0.0
                        CHANNELS 3 Zrotation Yrotation Xrotation
                        JOINT RightHandRing4
                        {
                          OFFSET -2.654903 -4e-06 4e-06
                          CHANNELS 3 Zrotation Yrotation Xrotation
                          JOINT RightHandRingEnd
                          {
                            OFFSET -1.933568 0.077527 -5.2e-05
                            CHANNELS 3 Zrotation Yrotation Xrotation
                          }
                        }
                      }
                    }
                  }
                  JOINT RightHandPinky1
                  {
                    OFFSET -2.866425 -0.342796 -1.584145
                    CHANNELS 3 Zrotation Yrotation Xrotation
                    JOINT RightHandPinky2
                    {
                      OFFSET -5.091371 -1.332055 -1.772385
                      CHANNELS 3 Zrotation Yrotation Xrotation
                      JOINT RightHandPinky3
                      {
                        OFFSET -3.062664 -4e-06 1e-06
                        CHANNELS 3 Zrotation Yrotation Xrotation
                        JOINT RightHandPinky4
                        {
                          OFFSET -1.546529 4e-06 -2e-06
                          CHANNELS 3 Zrotation Yrotation Xrotation
                          JOINT RightHandPinkyEnd
                          {
                            OFFSET -1.945119 -0.157718 0.057211
                            CHANNELS 3 Zrotation Yrotation Xrotation
                          }
                        }
                      }
                    }
                  }
                }
              }
            }
          }
        }
      }
    }
    JOINT LeftLeg
    {
      OFFSET 10.043214 -8.434526 2.595655
      CHANNELS 3 Zrotation Yrotation Xrotation
      JOINT LeftShin
      {
        OFFSET -1e-06 -43.221752 -0.802913
        CHANNELS 3 Zrotation Yrotation Xrotation
        JOINT LeftFoot
        {
          OFFSET 1e-06 -42.155094 -3.481523
          CHANNELS 3 Zrotation Yrotation Xrotation
          JOINT LeftToeBase
          {
            OFFSET 0.0 -5.059472 13.231529
            CHANNELS 3 Zrotation Yrotation Xrotation
            JOINT LeftToeEnd
            {
              OFFSET -0.009607 -1.647619 6.513017
              CHANNELS 3 Zrotation Yrotation Xrotation
            }
          }
        }
      }
    }
    JOINT RightLeg
    {
      OFFSET -10.047278 -8.29526 2.620317
      CHANNELS 3 Zrotation Yrotation Xrotation
      JOINT RightShin
      {
        OFFSET 1e-06 -43.362206 -0.805556
        CHANNELS 3 Zrotation Yrotation Xrotation
        JOINT RightFoot
        {
          OFFSET 2e-06 -42.117393 -3.478398
          CHANNELS 3 Zrotation Yrotation Xrotation
          JOINT RightToeBase
          {
            OFFSET -0.0 -5.079609 13.284196
            CHANNELS 3 Zrotation Yrotation Xrotation
            JOINT RightToeEnd
            {
              OFFSET 0.009532 -1.634378 6.460591
              CHANNELS 3 Zrotation Yrotation Xrotation
            }
          }
        }
      }
    }
  }
}
MOTION
Frames: 4
Frame Time: 0.03333333333333333
0.0 0.0 0.0 0.0 -0.0 0.0 0.540274 95.957932 -3.149717 1.487862 0.40361 18.793404 -1.179011 0.240509 -0.416463 -0.867658 1.90527 -4.520198 -1.750185 -0.439736 9.074226 -0.474947 2.260627 -12.610289 -0.927143 0.165069 -3.562032 -0.516427 -1.190343 -13.355879 7.7e-05 -2.3e-05 6e-06 0.03063 -0.00626 -0.002072 0.771768 -3.746469 -10.614839 -0.718276 3.740826 -10.642355 -14.918384 -5.422531 12.248342 -51.502464 -10.14441 27.001762 -1.016288 -25.90781 0.324909 5.092556 -0.153791 -25.485796 -5.882108 9.861288 0.70259 -10.936873 -0.360575 7.156206 0.0 8.774828 -0.0 -16.216343 18.517033 6.421179 -1.844033 2.498505 -2.507278 -10.163603 4.678946 4.62111 -20.976028 -4e-06 -1e-06 -21.226292 2.451698 -3.594003 -1e-06 -6e-06 -1e-06 -1.362682 2.240798 -0.746324 -21.334919 0.58491 3.008322 -13.821218 -3e-06 2e-06 -23.887173 -0.249081 -0.839484 -61.166058 1.953463 -0.575988 -0.294025 1.679688 0.833256 -14.218212 0.093215 1.300579 -34.212063 -0.287564 0.967166 -20.033215 0.964536 1.212842 -0.0 -0.0 -0.0 -3.440389 0.788234 0.501656 -15.928189 -3.16731 2.999706 -6.338827 -1e-06 1e-06 -18.123453 3.648183 -4.905674 -4e-06 1e-06 -2e-06 15.204773 12.971956 15.233271 51.664562 12.763295 16.884262 -0.496975 50.57452 -0.487759 -3.774452 2.57787 -6.916922 2.243541 -5.255035 -3.180156 14.282896 -0.826594 6.952505 -4e-06 -12.690603 0.0 15.887635 -17.528038 2.867106 1.665667 -1.955921 -2.878299 4.727801 -4.170587 4.993924 11.020529 3e-06 1e-06 12.109053 -3.735716 -2.866782 1e-06 1e-06 1e-06 1.291986 -1.928549 -1.498089 14.800132 0.567467 3.86561 14.242576 -1.341734 -6.660657 19.631973 0.143926 -0.648243 49.519337 -0.813744 -6.142823 0.353029 -1.51115 -0.03194 20.222801 3.68431 2.316629 18.787279 7e-06 1e-06 10.751631 -0.47987 1.397906 1e-06 2e-06 0.0 3.273808 0.305949 -0.580113 21.486818 11.830371 2.266133 8.162929 -0.0 -1e-06 18.399084 -3.798983 -4.940574 2e-06 -1e-06 -1e-06 0.894081 6.991046 -15.091406 0.1513 -0.330679 19.506207 -8.833562 4.64677 -23.050039 1.638481 -1.818108 -2.406199 0.0 0.0 2e-06 -6.164191 -8.163486 -16.189657 -0.021532 0.422733 35.027794 10.065377 -7.686472 -14.631142 -1.533495 0.967474 -6.27866 0.0 0.0 -1e-06 
0.0 0.0 0.0 0.0 -0.0 0.0 0.831642 95.305283 -1.728119 1.354025 1.125802 18.971004 -1.257533 0.237133 -0.125182 -0.832375 1.480269 -4.326713 -1.975951 -0.69524 9.02125 0.443096 2.289161 -12.070683 -0.96272 -0.259517 -3.600394 -0.123655 -1.22155 -13.228078 7.7e-05 -2.3e-05 6e-06 0.025426 0.013747 -0.034549 0.759501 -3.720203 -10.601502 -0.716354 3.750014 -10.623235 -14.329524 -5.976107 12.62851 -51.927208 -10.095088 25.759123 -1.215621 -25.478306 0.419742 4.979143 0.274444 -25.130674 -5.882108 9.861286 0.702591 -10.936876 -0.360576 7.156207 1e-06 8.774828 -0.0 -16.306282 18.271231 6.282352 -1.844033 2.498504 -2.507278 -10.163604 4.678945 4.621109 -20.976032 -5e-06 2e-06 -21.226295 2.451695 -3.594 -1e-06 -7e-06 -0.0 -1.362682 2.240798 -0.746324 -21.334925 0.584908 3.008322 -13.821218 -4e-06 2e-06 -23.887182 -0.249081 -0.839483 -61.031578 1.938236 -0.647841 -0.294025 1.679687 0.833256 -14.218214 0.093214 1.30058 -34.212063 -0.287566 0.96717 -20.033218 0.964535 1.212844 -0.0 -0.0 -0.0 -3.44039 0.788233 0.501656 -15.928192 -3.16731 2.999707 -6.338829 -2e-06 1e-06 -18.123457 3.648182 -4.905672 -4e-06 1e-06 -2e-06 14.937335 12.07516 15.386316 53.127487 11.40364 15.162908 -0.576325 52.381073 -0.426477 -4.394258 2.383157 -7.29246 2.243542 -5.255037 -3.180157 14.28289 -0.826593 6.952502 -3e-06 -12.690605 2e-06 16.180077 -17.57276 2.698757 1.665666 -1.95592 -2.878299 4.727798 -4.170587 4.993925 11.020528 4e-06 -1e-06 12.109052 -3.735714 -2.866785 1e-06 0.0 -0.0 1.291986 -1.928549 -1.498089 14.800129 0.567469 3.865608 14.242574 -1.341736 -6.660658 19.631969 0.143926 -0.648246 49.69503 -0.729018 -6.118807 0.353029 -1.511151 -0.03194 20.222794 3.684309 2.316628 18.787273 6e-06 -3e-06 10.751629 -0.479865 1.397906 1e-06 2e-06 -0.0 3.273807 0.305946 -0.580112 21.486816 11.830379 2.266132 8.162928 1e-06 -3e-06 18.399086 -3.798983 -4.940576 2e-06 1e-06 -1e-06 1.112349 6.826195 -15.248693 0.166251 -0.562606 21.387163 -9.413695 4.242033 -24.968367 1.64885 -1.838544 -2.104284 -0.0 0.0 2e-06 -5.944315 -9.086241 -22.748993 0.050373 0.361436 48.817806 8.27648 -8.543762 -12.848826 -1.569624 0.945641 -5.840428 -0.0 0.0 -1e-06 
0.0 0.0 0.0 0.0 -0.0 0.0 1.269798 94.16758 1.837736 1.043447 1.935398 18.964718 -1.258532 0.166779 0.430793 -0.751691 0.940615 -4.124403 -2.053598 -0.871245 9.183757 1.401722 2.324568 -11.591517 -0.996379 -0.568142 -3.697043 0.343512 -1.466939 -12.960821 7.7e-05 -2.3e-05 6e-06 0.021724 0.014723 -0.048463 0.732717 -3.71832 -10.660603 -0.69689 3.747404 -10.660757 -14.181685 -6.841607 12.948195 -51.256519 -10.159124 25.201797 -1.226326 -25.89921 0.49902 4.624102 0.548841 -24.947296 -5.882109 9.861289 0.702591 -10.936873 -0.360576 7.156204 1e-06 8.77483 -0.0 -16.415867 18.245142 6.094374 -1.844033 2.498505 -2.507279 -10.163603 4.678946 4.621109 -20.976034 -5e-06 -2e-06 -21.226299 2.451696 -3.594004 -1e-06 -6e-06 0.0 -1.362682 2.240799 -0.746323 -21.334923 0.584908 3.00832 -13.82122 -4e-06 1e-06 -23.887178 -0.249084 -0.839486 -60.867237 1.888265 -0.695664 -0.294025 1.679688 0.833255 -14.218214 0.093214 1.300579 -34.212059 -0.28757 0.967166 -20.033218 0.964533 1.212842 1e-06 -0.0 -0.0 -3.44039 0.788234 0.501655 -15.928192 -3.167311 2.999706 -6.338829 -1e-06 -0.0 -18.123453 3.648183 -4.905675 -3e-06 1e-06 -2e-06 14.982356 11.336086 15.41445 54.311066 9.674595 13.052654 -0.740487 53.444126 -0.629667 -5.635142 2.358693 -8.881978 2.243543 -5.255039 -3.18016 14.282898 -0.826598 6.952506 -2e-06 -12.690612 2e-06 16.294386 -17.650423 2.665631 1.665668 -1.955922 -2.878302 4.727799 -4.17059 4.993927 11.02053 3e-06 -4e-06 12.109056 -3.735717 -2.866788 0.0 -0.0 1e-06 1.291986 -1.928549 -1.498091 14.800136 0.567467 3.865608 14.242579 -1.341735 -6.660664 19.631975 0.143928 -0.648246 49.849449 -0.762148 -6.048576 0.353029 -1.51115 -0.031938 20.222801 3.684313 2.316626 18.787283 6e-06 -4e-06 10.751634 -0.47987 1.397904 2e-06 1e-06 -2e-06 3.273809 0.305946 -0.580113 21.486824 11.830383 2.266129 8.16293 1e-06 -2e-06 18.399094 -3.798987 -4.940579 4e-06 1e-06 0.0 1.707954 6.568862 -12.947107 0.196351 -0.782993 21.761007 -10.005065 3.651901 -27.621582 1.654051 -1.843155 -1.837869 0.0 -0.0 2e-06 -5.12329 -9.904101 -30.261198 0.07252 0.108555 62.874569 7.445745 -7.52755 -13.473838 -1.562538 0.945638 -3.584881 0.0 -0.0 -4e-06 
0.0 0.0 0.0 0.0 -0.0 0.0 1.506572 92.604889 5.568573 0.621654 2.585546 18.852917 -1.20975 0.072389 1.048372 -0.667748 0.526289 -3.880941 -2.04036 -1.101574 9.576081 2.401961 2.196369 -11.421923 -0.976717 -0.466203 -3.780793 0.720333 -1.623505 -12.601057 7.7e-05 -2.2e-05 6e-06 0.021249 0.006518 -0.049729 0.716322 -3.723965 -10.720402 -0.680876 3.735436 -10.702188 -14.650043 -7.835896 13.246397 -49.478409 -10.788055 25.032372 -1.161188 -26.292881 0.534998 4.111796 0.626507 -24.487316 -5.882107 9.861284 0.702589 -10.936873 -0.360575 7.156206 -0.0 8.774824 -1e-06 -16.550219 18.337009 5.936104 -1.844033 2.498504 -2.507279 -10.163601 4.678944 4.621107 -20.976027 -3e-06 1e-06 -21.22629 2.451697 -3.594 -1e-06 -7e-06 -0.0 -1.362682 2.240798 -0.746323 -21.334917 0.58491 3.008322 -13.821215 -2e-06 2e-06 -23.887173 -0.249078 -0.839484 -60.834229 1.902719 -0.702702 -0.294025 1.679687 0.833256 -14.218211 0.093215 1.300581 -34.212051 -0.287564 0.96717 -20.033218 0.964536 1.212843 -0.0 -0.0 -0.0 -3.440389 0.788233 0.501657 -15.928189 -3.167309 2.999707 -6.338828 -1e-06 3e-06 -18.123449 3.648181 -4.905669 -5e-06 0.0 -2e-06 15.531981 10.732697 15.428713 54.796238 8.15687 10.903035 -0.670486 52.855484 -0.778354 -7.153149 2.722933 -11.472372 2.243541 -5.255037 -3.180161 14.282895 -0.826594 6.952507 -4e-06 -12.690606 2e-06 16.291403 -17.730247 2.660813 1.665666 -1.955921 -2.878301 4.7278 -4.170589 4.993927 11.020528 4e-06 0.0 12.109053 -3.735716 -2.866784 0.0 0.0 -0.0 1.291985 -1.928549 -1.498091 14.800132 0.567469 3.865611 14.242575 -1.341735 -6.66066 19.631969 0.143926 -0.648244 49.9482 -0.756917 -6.035846 0.353029 -1.511151 -0.03194 20.222797 3.68431 2.316633 18.787279 4e-06 2e-06 10.751632 -0.47987 1.397904 2e-06 0.0 1e-06 3.273807 0.305947 -0.580111 21.48682 11.830376 2.266136 8.16293 0.0 1e-06 18.399092 -3.798988 -4.940575 3e-06 1e-06 -1e-06 2.604083 6.480893 -10.780383 0.211525 -0.974947 23.099648 -10.598927 2.822673 -30.940798 1.654429 -1.844464 -1.591925 -0.0 -0.0 2e-06 -3.633882 -10.680794 -38.608303 0.02301 -0.153456 74.56089 7.496659 -5.355562 -16.027157 -1.5223 0.935721 -3.133831 0.0 -0.0 -4e-06 
